# xmcd CD database file
#
# Track frame offsets:
#	150
#	20517
#	31062
#	61775
#
# Disc length: 1384 seconds
#
# Revision: 0
# Processed by: cddbd v1.5.1PL0 Copyright (c) Steve Scherf et al.
# Submitted via: CDex 1.51
#
DISCID=24056604
DTITLE=BRAHMAN - CAUSATION
DYEAR=2005
DGENRE=Punk
TTITLE0=CAUSATION
TTITLE1=BEYOND THE MOUNTAIN
TTITLE2=FIBS IN THE HANDS
TTITLE3=Data Track
EXTD=YEAR: 2005
EXTT0=
EXTT1=
EXTT2=
EXTT3=
PLAYORDER=
